<svg width="12" height="12" viewBox="0 0 12 12" fill="none" xmlns="http://www.w3.org/2000/svg">
<path d="M11.6842 0.947301V9.15724C11.6842 9.40848 11.587 9.64943 11.4141 9.82709C11.2411 10.0047 11.0066 10.1045 10.762 10.1045C10.5174 10.1045 10.2828 10.0047 10.1098 9.82709C9.93687 9.64943 9.83971 9.40848 9.83971 9.15724V3.23661L1.57711 11.7221C1.40386 11.9 1.16887 12 0.923851 12C0.67883 12 0.443845 11.9 0.27059 11.7221C0.0973341 11.5441 0 11.3027 0 11.0511C0 10.7994 0.0973341 10.558 0.27059 10.3801L8.53319 1.8946H2.76912C2.52452 1.8946 2.28995 1.7948 2.11699 1.61714C1.94404 1.43949 1.84687 1.19854 1.84687 0.947301C1.84687 0.696061 1.94404 0.455111 2.11699 0.277458C2.28995 0.0998045 2.52452 0 2.76912 0H10.762C11.0066 0 11.2411 0.0998045 11.4141 0.277458C11.587 0.455111 11.6842 0.696061 11.6842 0.947301Z" fill="white"/>
</svg>
