<svg width="60" height="60" viewBox="0 0 60 60" fill="none" xmlns="http://www.w3.org/2000/svg">
<g clip-path="url(#clip0_3023_1649)">
<path d="M52.7454 45.6076L45.1976 53.3296L46.789 54.9578L54.3368 47.2351L52.7454 45.6076ZM35.3431 57.6226C42.226 50.6948 50.4526 42.2438 57.1516 35.3086L58.7429 36.9376L55.3154 40.4026C49.3157 46.5151 43.5946 52.3238 36.9352 59.2508L35.3431 57.6226ZM28.9534 58.3696C34.6497 52.6673 32.1274 55.1986 40.7549 46.5173C44.782 42.4478 41.6792 45.6736 57.7006 28.9553L59.2927 30.5843C43.3402 46.5901 46.4899 43.3876 39.5528 50.6033C34.0728 56.3048 35.8818 54.4171 30.5463 60.0001L28.9542 58.3711L28.9534 58.3696ZM23.8129 57.8378L24.1904 57.4516C30.5712 50.8868 35.6795 46.4776 46.9136 34.5383C55.3689 25.5503 55.3264 25.5803 57.3656 23.5073L58.9577 25.1356C57.5151 26.6191 57.3744 26.7518 55.8402 28.2818C31.6949 52.0583 36.068 48.5731 25.405 59.4646L23.8129 57.8356V57.8378ZM19.4148 56.5478C25.0282 50.7968 33.0722 43.4266 38.1754 38.2066C42.704 33.5528 52.1927 22.9501 55.6892 19.4311L56.1019 19.0111L57.694 20.6393L57.2835 21.0616C53.7724 24.7163 43.4919 34.3366 38.9326 38.9806C33.6037 44.4346 27.0359 52.0133 21.0069 58.1768L19.4148 56.5478ZM15.4316 54.8311L15.8678 54.3863C23.667 46.4048 32.0665 39.3983 38.9502 31.8136C46.0626 24.0286 46.5515 23.1248 54.2115 15.1508L55.8028 16.7798C53.4286 19.1693 50.5999 21.9616 48.1612 24.2618C26.8893 44.2276 29.8682 43.3178 17.4562 56.0116C17.1733 56.3033 17.0215 56.4578 17.0215 56.4578L15.4302 54.8296L15.4316 54.8311ZM12.0781 52.4708C34.5148 29.6731 17.207 49.8301 45.9893 18.0383C46.5332 17.4308 49.8017 13.8421 52.1172 11.5043L53.7079 13.1333C53.0262 13.8406 53.0819 13.7858 51.9838 14.8883C34.1153 32.5126 43.1328 21.5423 21.2026 46.0089C18.7454 48.7576 16.2346 51.4556 13.6717 54.1013L12.0796 52.4731L12.0781 52.4708ZM29.641 30.3323C33.1037 26.7323 41.4644 16.6831 49.3655 8.52385L49.6001 8.2876L51.1922 9.9166L50.9606 10.1566L50.2987 10.8278C42.1117 19.0103 32.9689 26.9933 29.6461 30.3398L29.6388 30.3323H29.641Z" fill="white"/>
<path d="M8.93436 49.8975C17.4724 41.2275 27.3211 32.6595 30.1264 29.835L30.1337 29.8425C27.3087 32.781 18.5654 43.2368 10.5257 51.5265L8.93436 49.8975ZM6.41721 46.68C9.5241 43.5208 12.7091 40.4431 15.969 37.4497C26.506 27.7785 26.9312 27.4853 37.4279 15.4785C39.1196 13.5375 44.3409 7.854 46.0048 6.171C46.2987 5.87175 46.4563 5.7135 46.4563 5.7135L48.0477 7.34175L47.6006 7.803C45.9403 9.5205 40.3863 14.8635 38.5039 16.5795C19.162 34.2795 22.8784 32.9888 8.0093 48.3083L6.41721 46.68ZM4.1119 43.248C11.9463 35.2875 19.928 28.2518 22.7985 25.2743C27.1042 21.2025 35.2083 11.4548 43.105 3.354L44.6971 4.98225C41.5276 8.21775 38.3566 11.2612 35.4319 14.0085C17.2679 31.014 18.5126 31.683 5.70692 44.877L4.1141 43.248H4.1119ZM2.43551 39.1755C15.3922 25.9043 10.6672 32.3235 33.4821 7.59975C36.7806 4.0545 37.4073 3.375 39.1196 1.63875L40.7117 3.267C37.1083 6.9885 26.8542 16.7423 25.4117 18.1478C18.3198 25.038 10.9787 33.6982 4.02614 40.8045L2.43404 39.1755H2.43551ZM1.17253 34.6748C3.82383 31.971 5.64682 30.1973 6.47878 29.3752C26.7597 9.4275 20.8949 14.652 34.7231 0.345L36.3152 1.974C15.6385 22.8945 38.4951 -1.09725 4.19913 34.8218C2.95081 36.1103 3.23742 35.8155 2.76243 36.303L1.17033 34.6748H1.17253ZM0.654297 29.415C17.3962 12.6225 13.2569 16.86 29.4036 0L30.9957 1.629C14.8402 17.8283 18.8813 13.683 2.24712 31.044L0.654297 29.415ZM1.17253 23.0933C8.20575 16.0103 16.6192 7.36875 23.4039 0.34575L24.996 1.9755C18.1659 8.88225 9.5882 17.628 2.7639 24.7223L1.17253 23.0933ZM14.1754 3.99825L5.1623 13.2218L6.75293 14.8492L15.7667 5.6265L14.1761 3.99825H14.1754Z" fill="white"/>
</g>
<defs>
<clipPath id="clip0_3023_1649">
<rect width="58.6407" height="60" fill="white" transform="translate(0.654297)"/>
</clipPath>
</defs>
</svg>
