<svg width="62" height="60" viewBox="0 0 62 60" fill="none" xmlns="http://www.w3.org/2000/svg">
<g clip-path="url(#clip0_3023_1638)">
<path d="M21.3946 30C14.0402 27.807 7.74956 23.1953 3.49276 17.1128C1.5322 21.1369 0.516886 25.5406 0.5215 30C0.517094 34.4594 1.5324 38.8631 3.49276 42.8873C7.74956 36.8048 14.0395 32.196 21.3946 30ZM31.1294 20.4585C33.3676 13.2503 38.0728 7.08452 44.2778 2.91227C40.1722 0.990399 35.6792 -0.00475945 31.1294 1.71138e-05C26.5796 -0.00450485 22.0867 0.990641 17.981 2.91227C24.1868 7.08452 28.8897 13.2495 31.1294 20.4585Z" fill="white"/>
<path d="M29.6495 31.4526C19.2619 31.9401 10.215 37.5254 5.06445 45.7086C7.58478 49.7091 11.0223 53.0784 15.1038 55.5486C23.4522 50.4989 29.1529 41.6331 29.6495 31.4526Z" fill="white"/>
<path d="M31.1294 39.5417C28.8919 46.7499 24.1867 52.9157 17.981 57.0879C22.0866 59.0098 26.5796 60.005 31.1294 60.0002C35.6791 60.0045 40.172 59.0094 44.2778 57.0879C38.072 52.9157 33.3691 46.7499 31.1294 39.5417ZM29.6495 28.5489C29.1521 18.3677 23.4529 9.50043 15.1038 4.45068C11.0223 6.92095 7.58478 10.2902 5.06445 14.2907C10.2173 22.4732 19.2619 28.0592 29.6495 28.5467V28.5489ZM40.8642 30.0002C48.2185 32.1939 54.5092 36.8057 58.766 42.8874C60.7268 38.8634 61.7422 34.4596 61.7373 30.0002C61.742 25.5408 60.7267 21.137 58.766 17.1129C54.5092 23.1954 48.2185 27.8049 40.8642 30.0002Z" fill="white"/>
<path d="M32.6102 28.5494C42.9977 28.0619 52.0454 22.4759 57.1952 14.2926C54.6749 10.2921 51.2374 6.9229 47.1558 4.45264C38.8075 9.50314 33.1076 18.3681 32.6102 28.5516V28.5494ZM32.6102 31.4526C33.1076 41.6331 38.8067 50.5011 47.1558 55.5486C51.2374 53.0784 54.6749 49.7091 57.1952 45.7086C52.0431 37.5261 42.9977 31.9394 32.6102 31.4526ZM29.7177 31.3844C29.6963 31.3844 29.6741 31.3844 29.6519 31.3821C29.6519 31.4054 29.6519 31.4294 29.6504 31.4504C29.6741 31.4504 29.6986 31.4504 29.72 31.4489C29.72 31.4264 29.72 31.4054 29.7177 31.3844ZM29.7177 28.6154C29.7177 28.5936 29.7177 28.5726 29.72 28.5509C29.6963 28.5509 29.6718 28.5509 29.6504 28.5486C29.6504 28.5726 29.6504 28.5959 29.6519 28.6176C29.6749 28.6176 29.6963 28.6176 29.7177 28.6154ZM32.5428 31.3844C32.5428 31.4054 32.5428 31.4271 32.5405 31.4489C32.5643 31.4489 32.5887 31.4489 32.6102 31.4504C32.6102 31.4271 32.6102 31.4031 32.6086 31.3821C32.5857 31.3821 32.5643 31.3821 32.5428 31.3844ZM32.5428 28.6154C32.5648 28.615 32.5868 28.6158 32.6086 28.6176C32.6086 28.5944 32.6086 28.5704 32.6102 28.5486C32.5865 28.5486 32.562 28.5486 32.5405 28.5509C32.5405 28.5726 32.5405 28.5944 32.5428 28.6154Z" fill="white"/>
</g>
<defs>
<clipPath id="clip0_3023_1638">
<rect width="61.2158" height="60" fill="white" transform="translate(0.521484)"/>
</clipPath>
</defs>
</svg>
