<svg width="60" height="60" viewBox="0 0 60 60" fill="none" xmlns="http://www.w3.org/2000/svg">
<g clip-path="url(#clip0_3023_1658)">
<path d="M34.1776 26.5283L56.1687 34.5848C56.6757 34.7709 57.0913 35.1598 57.3242 35.666C57.5572 36.1723 57.5885 36.7545 57.4112 37.2848C57.2333 37.815 56.8614 38.2496 56.3771 38.4933C55.8929 38.737 55.336 38.7698 54.8286 38.5845L29.6797 29.3715L33.5686 1.81054C33.6468 1.25458 33.933 0.753869 34.3643 0.418554C34.5779 0.252523 34.8206 0.132096 35.0787 0.064148C35.3368 -0.00379978 35.6052 -0.0179373 35.8685 0.0225427C36.1318 0.0630226 36.3849 0.157327 36.6133 0.300072C36.8418 0.442817 37.0411 0.631207 37.1999 0.854486C37.3587 1.07776 37.4739 1.33156 37.5389 1.60138C37.6039 1.8712 37.6174 2.15176 37.5787 2.42704L34.1776 26.5283Z" fill="white"/>
<path d="M43.1712 20.8448L58.0352 26.2913C58.5422 26.4774 58.9578 26.8663 59.1908 27.3725C59.4237 27.8788 59.455 28.461 59.2777 28.9913C59.0997 29.5213 58.7277 29.9558 58.2435 30.1994C57.7593 30.4429 57.2024 30.4756 56.6952 30.2903L38.6719 23.688L41.4589 3.93603C41.5371 3.38007 41.8233 2.87936 42.2546 2.54404C42.4682 2.37801 42.7109 2.25758 42.969 2.18964C43.2271 2.12169 43.4955 2.10755 43.7588 2.14803C44.0221 2.18851 44.2752 2.28282 44.5036 2.42556C44.7321 2.56831 44.9314 2.7567 45.0902 2.97997C45.249 3.20325 45.3642 3.45705 45.4292 3.72687C45.4942 3.99669 45.5077 4.27725 45.469 4.55253L43.1691 20.8448H43.1712Z" fill="white"/>
<path d="M52.1674 15.1607L55.8396 16.5054C56.3466 16.6916 56.7622 17.0805 56.9951 17.5867C57.2281 18.0929 57.2594 18.6751 57.0821 19.2054C56.904 19.7355 56.5321 20.17 56.0479 20.4135C55.5636 20.6571 55.0068 20.6898 54.4995 20.5044L47.6701 18.0039L48.724 10.5197C48.8022 9.96373 49.0886 9.46306 49.52 9.12782C49.7336 8.96182 49.9763 8.84143 50.2344 8.77353C50.4925 8.70563 50.7609 8.69154 51.0242 8.73207C51.2875 8.7726 51.5406 8.86695 51.769 9.00974C51.9975 9.15253 52.1968 9.34097 52.3555 9.56428C52.5143 9.78759 52.6295 10.0414 52.6944 10.3113C52.7594 10.5811 52.7728 10.8617 52.7341 11.1369L52.1674 15.1607ZM29.7824 34.8647L12.1128 50.7475C11.703 51.094 11.1803 51.2601 10.6553 51.2105C10.1304 51.1609 9.64459 50.8995 9.30089 50.4817C8.95719 50.0639 8.78262 49.5227 8.81419 48.9726C8.84576 48.4226 9.08099 47.907 9.47001 47.5352L29.6763 29.3717L50.5619 46.6749C50.7706 46.8477 50.9448 47.0619 51.0743 47.3051C51.2039 47.5483 51.2863 47.8158 51.3169 48.0923C51.3475 48.3689 51.3256 48.649 51.2526 48.9167C51.1795 49.1844 51.0567 49.4344 50.8911 49.6525C50.7258 49.8706 50.521 50.0526 50.2884 50.188C50.0557 50.3234 49.7999 50.4095 49.5354 50.4415C49.2709 50.4735 49.003 50.4507 48.7469 50.3743C48.4909 50.298 48.2518 50.1697 48.0432 49.9967L29.7781 34.8669L29.7824 34.8647Z" fill="white"/>
<path d="M29.9954 45.8497L18.0511 56.5859C17.6416 56.9352 17.1178 57.1035 16.5914 57.055C16.0649 57.0064 15.5774 56.7449 15.2327 56.326C14.888 55.9072 14.7134 55.3642 14.7461 54.8127C14.7787 54.2612 15.0161 53.7449 15.4076 53.3737L29.8892 40.3574L44.8565 52.7572C45.0652 52.93 45.2394 53.1441 45.3689 53.3873C45.4985 53.6305 45.5809 53.898 45.6115 54.1746C45.6421 54.4511 45.6202 54.7312 45.5472 54.9989C45.4741 55.2666 45.3513 55.5166 45.1857 55.7347C45.0204 55.9529 44.8156 56.1349 44.5829 56.2703C44.3503 56.4056 44.0944 56.4917 43.8299 56.5236C43.5654 56.5555 43.2974 56.5326 43.0414 56.4562C42.7854 56.3797 42.5463 56.2513 42.3378 56.0782L29.9918 45.8497H29.9954Z" fill="white"/>
<path d="M30.2056 56.8346L27.2558 59.4873C26.8463 59.8367 26.3225 60.005 25.7961 59.9564C25.2696 59.9079 24.7821 59.6463 24.4374 59.2275C24.0927 58.8086 23.9181 58.2656 23.9507 57.7141C23.9834 57.1626 24.2208 56.6463 24.6123 56.2751L30.0995 51.3423L35.7703 56.0403C35.979 56.2131 36.1532 56.4272 36.2827 56.6704C36.4123 56.9136 36.4948 57.1811 36.5254 57.4576C36.5561 57.7341 36.5343 58.0142 36.4613 58.282C36.3884 58.5497 36.2657 58.7997 36.1003 59.0178C35.9349 59.236 35.73 59.4179 35.4974 59.5532C35.2647 59.6885 35.0088 59.7746 34.7444 59.8065C34.4799 59.8384 34.212 59.8155 33.956 59.7391C33.7 59.6628 33.4608 59.5344 33.2523 59.3613L30.2035 56.8353L30.2056 56.8346ZM25.0757 26.7191L20.755 2.77909C20.7019 2.50418 20.7016 2.22098 20.7541 1.94595C20.8065 1.67091 20.9107 1.4095 21.0606 1.1769C21.2105 0.944295 21.403 0.745126 21.6271 0.590949C21.8512 0.436771 22.1023 0.330656 22.3659 0.278762C22.6296 0.226868 22.9004 0.230227 23.1628 0.288646C23.4252 0.347064 23.6738 0.459378 23.8943 0.61907C24.1149 0.778762 24.3028 0.982652 24.4474 1.21891C24.5919 1.45516 24.6902 1.71908 24.7364 1.99534L29.6791 29.3711L4.90317 39.6311C4.40334 39.8379 3.84542 39.8288 3.35202 39.6057C2.85862 39.3827 2.47011 38.964 2.27185 38.4416C2.17361 38.1829 2.12512 37.9064 2.12914 37.6281C2.13316 37.3498 2.18962 37.075 2.29529 36.8195C2.40096 36.564 2.55376 36.3328 2.74496 36.1391C2.93617 35.9454 3.16202 35.793 3.4096 35.6906L25.0757 26.7191Z" fill="white"/>
<path d="M15.8672 21.417L12.9454 5.23499C12.8931 4.96043 12.8934 4.67776 12.9463 4.40332C12.9992 4.12888 13.1036 3.86813 13.2535 3.63614C13.4033 3.40415 13.5957 3.20553 13.8195 3.05175C14.0432 2.89798 14.2939 2.7921 14.5571 2.74026C14.8202 2.68841 15.0906 2.69161 15.3525 2.74968C15.6145 2.80775 15.8628 2.91954 16.0832 3.07858C16.3035 3.23762 16.4916 3.44075 16.6364 3.67623C16.7812 3.91172 16.8799 4.17488 16.9268 4.45049L20.4692 24.0705L2.71419 31.422C2.21861 31.6083 1.67315 31.5857 1.1932 31.3591C0.713245 31.1324 0.336446 30.7195 0.142512 30.2076C-0.0514221 29.6957 -0.0472801 29.125 0.154062 28.6162C0.355403 28.1074 0.738153 27.7005 1.22134 27.4815L15.8651 21.4177L15.8672 21.417Z" fill="white"/>
<path d="M6.66399 16.1131L5.94088 12.1163C5.88862 11.8418 5.88894 11.5591 5.94182 11.2847C5.9947 11.0102 6.0991 10.7495 6.24897 10.5175C6.39885 10.2855 6.59123 10.0869 6.81498 9.9331C7.03874 9.77933 7.28943 9.67345 7.55257 9.6216C7.81571 9.56976 8.08607 9.57296 8.34802 9.63103C8.60996 9.6891 8.8583 9.80089 9.07866 9.95993C9.29903 10.119 9.48705 10.3221 9.63186 10.5576C9.77666 10.7931 9.87538 11.0562 9.9223 11.3318L11.2652 18.7651L4.53841 21.5513C4.04283 21.7376 3.49737 21.7151 3.01742 21.4884C2.53746 21.2618 2.16066 20.8488 1.96673 20.3369C1.7728 19.825 1.77694 19.2543 1.97828 18.7455C2.17962 18.2368 2.56237 17.8299 3.04556 17.6108L6.66112 16.1131H6.66399Z" fill="white"/>
</g>
<defs>
<clipPath id="clip0_3023_1658">
<rect width="60" height="60" fill="white"/>
</clipPath>
</defs>
</svg>
