<svg width="23" height="28" viewBox="0 0 23 28" fill="none" xmlns="http://www.w3.org/2000/svg">
<path d="M-0.707 19.5414C-0.894549 19.7289 -0.999943 19.9832 -1 20.2484V23.5004C-1 23.6331 -0.947321 23.7602 -0.853553 23.854C-0.759785 23.9478 -0.632608 24.0004 -0.5 24.0004H2.752C3.01719 24.0004 3.27151 23.895 3.459 23.7074L15.099 12.0674C15.1456 12.021 15.1825 11.9658 15.2077 11.9051C15.2329 11.8443 15.2459 11.7792 15.2459 11.7134C15.2459 11.6477 15.2329 11.5826 15.2077 11.5218C15.1825 11.4611 15.1456 11.4059 15.099 11.3594L11.642 7.90044C11.5482 7.80671 11.4211 7.75405 11.2885 7.75405C11.1559 7.75405 11.0288 7.80671 10.935 7.90044L-0.707 19.5414ZM18.675 8.49144C18.7779 8.38864 18.8595 8.26657 18.9151 8.13222C18.9708 7.99787 18.9995 7.85387 18.9995 7.70844C18.9995 7.56301 18.9708 7.41901 18.9151 7.28466C18.8595 7.15031 18.7779 7.02825 18.675 6.92544L16.075 4.32544C15.9722 4.22258 15.8501 4.14098 15.7158 4.0853C15.5814 4.02963 15.4374 4.00098 15.292 4.00098C15.1466 4.00098 15.0026 4.02963 14.8682 4.0853C14.7339 4.14098 14.6118 4.22258 14.509 4.32544L12.829 6.00544C12.7353 6.09921 12.6826 6.22636 12.6826 6.35894C12.6826 6.49152 12.7353 6.61868 12.829 6.71244L16.289 10.1714C16.3828 10.2652 16.5099 10.3178 16.6425 10.3178C16.7751 10.3178 16.9022 10.2652 16.996 10.1714L18.676 8.49144H18.675Z" fill="white"/>
<path d="M9 24H19" stroke="white" stroke-width="1.5" stroke-linecap="round"/>
</svg>
