<svg width="28" height="28" viewBox="0 0 28 28" fill="none" xmlns="http://www.w3.org/2000/svg">
<path fill-rule="evenodd" clip-rule="evenodd" d="M14 24C19.523 24 24 19.523 24 14C24 8.477 19.523 4 14 4C8.477 4 4 8.477 4 14C4 19.523 8.477 24 14 24ZM14 22.75C16.3206 22.75 18.5462 21.8281 20.1872 20.1872C21.8281 18.5462 22.75 16.3206 22.75 14C22.75 11.6794 21.8281 9.45376 20.1872 7.81282C18.5462 6.17187 16.3206 5.25 14 5.25C11.6794 5.25 9.45376 6.17187 7.81282 7.81282C6.17187 9.45376 5.25 11.6794 5.25 14C5.25 16.3206 6.17187 18.5462 7.81282 20.1872C9.45376 21.8281 11.6794 22.75 14 22.75Z" fill="white"/>
<path d="M14 19C16.7614 19 19 16.7614 19 14C19 11.2386 16.7614 9 14 9C11.2386 9 9 11.2386 9 14C9 16.7614 11.2386 19 14 19Z" fill="white"/>
</svg>
