<svg width="28" height="28" viewBox="0 0 28 28" fill="none" xmlns="http://www.w3.org/2000/svg">
<path d="M11.5 7.75C11.5 5.67893 9.82107 4 7.75 4C5.67893 4 4 5.67893 4 7.75V20.25C4 22.3211 5.67893 24 7.75 24C9.82107 24 11.5 22.3211 11.5 20.25V7.75Z" fill="white"/>
<path d="M19 6.5C19 5.11929 17.8807 4 16.5 4C15.1193 4 14 5.11929 14 6.5V21.5C14 22.8807 15.1193 24 16.5 24C17.8807 24 19 22.8807 19 21.5V6.5Z" fill="white"/>
<path d="M24 5.25C24 4.55964 23.4404 4 22.75 4C22.0596 4 21.5 4.55964 21.5 5.25V22.75C21.5 23.4404 22.0596 24 22.75 24C23.4404 24 24 23.4404 24 22.75V5.25Z" fill="white"/>
</svg>
