<svg width="50" height="50" viewBox="0 0 28 28" fill="none" xmlns="http://www.w3.org/2000/svg">
<path d="M10.055 16.656C9.44301 17.268 7.77501 18.97 6.34301 20.432C4.82654 18.6322 3.99648 16.3535 4.00001 14C3.99686 11.6491 4.82539 9.37284 6.33901 7.57401C7.58301 8.8393 8.83068 10.101 10.082 11.359C11.526 12.802 11.207 15.504 10.055 16.656ZM16.735 10.016L20.387 6.30601C18.5939 4.81291 16.3334 3.99678 14 4.00001C11.6598 3.99682 9.39327 4.81784 7.59801 6.31901L11.03 9.78001C12.966 11.602 15.251 11.283 16.733 10.015L16.735 10.016ZM21.634 7.54101C20.3795 8.81744 19.1211 10.0901 17.859 11.359C16.415 12.802 16.734 15.504 17.886 16.656C18.503 17.273 20.191 18.995 21.629 20.464C23.1626 18.6597 24.0032 16.368 24 14C24.0034 11.6343 23.1647 9.34471 21.634 7.54101ZM20.418 21.67L16.734 17.928C15.252 16.66 12.967 16.341 11.031 18.163L7.56701 21.656C9.36694 23.1731 11.646 24.0035 14 24C16.443 24 18.68 23.125 20.418 21.67Z" fill="white"/>
</svg>
