<svg width="41" height="23" viewBox="0 0 41 23" fill="none" xmlns="http://www.w3.org/2000/svg">
<path fill-rule="evenodd" clip-rule="evenodd" d="M21.1269 16.6539C22.1127 15.0396 22.6735 13.1597 22.6634 11.1554C22.6532 9.15111 22.0732 7.27711 21.0711 5.67304C22.805 3.4434 25.5753 1.99281 28.7037 1.97673C33.9864 1.94958 38.2896 6.02299 38.3153 11.075C38.341 16.127 34.0795 20.2444 28.7967 20.2715C25.6683 20.2876 22.8834 18.8656 21.1269 16.6539ZM20.0196 4.26076C17.9339 1.88695 14.8006 0.384986 11.3042 0.402957C5.06106 0.435046 0.0246064 5.30112 0.05496 11.2716C0.085314 17.2422 5.17098 22.0562 11.4141 22.0241C14.9105 22.0061 18.0284 20.4721 20.0898 18.077C22.1755 20.4508 25.3089 21.9527 28.8052 21.9347C35.0484 21.9026 40.0848 17.0366 40.0544 11.066C40.0241 5.09552 34.9385 0.281478 28.6953 0.313568C25.199 0.331538 22.081 1.86563 20.0196 4.26076Z" fill="white"/>
</svg>
