<?xml version="1.0" encoding="UTF-8"?> <svg xmlns="http://www.w3.org/2000/svg" data-name="Layer 1" viewBox="0 0 201.31 47.61"><path d="M33.91 36.95V15.68H38v21.27h-4.09ZM52.23 36.95l-5.25-17.82v17.82h-3.6V15.68h6.14l5.25 17.82V15.68h3.6v21.27h-6.14ZM68.97 37.36c-5.04 0-6.81-1.82-6.81-6.59v-.24h4.15v.26c0 1.85.24 3.68 2.69 3.68 1.77 0 2.75-.97 2.75-2.68 0-2.12-1.95-2.91-4.12-4.21-2.81-1.71-5.16-2.94-5.16-6.62 0-4.15 2.87-5.71 6.84-5.71s6.29 1.41 6.29 5.44v.82h-4.06v-.53c0-1.56-.37-2.85-2.41-2.85-1.62 0-2.54 1-2.54 2.5 0 2.24 2.5 3.12 4.61 4.44 2.81 1.74 4.67 2.74 4.67 6.38 0 4.38-2.84 5.88-6.9 5.88ZM85.55 28.03h-1.89v8.91h-4.09V15.68h6.57c4.61 0 6.84 1.41 6.84 6.06 0 5.65-3.02 6.29-7.42 6.29Zm-.43-9.47h-1.47v6.59h1.34c2.63 0 3.88-.65 3.88-3.38 0-2.59-1.28-3.21-3.76-3.21ZM96.61 36.95V15.68h4.09v21.27h-4.09ZM115.03 36.95c-.18-1.09-.24-2.24-.27-3.32 0-.85-.03-1.79-.09-2.71-.18-2.44-.64-3.09-3.3-3.09h-1.62v9.12h-4.09V15.68h6.93c3.85 0 6.6.76 6.6 5.5 0 2.65-.86 4.59-3.76 5.18 2.87.21 3.33 1.68 3.42 5.29.03.79.06 1.65.09 2.47.06.97.15 1.94.37 2.82h-4.28Zm-3.33-18.38h-1.95v6.38h1.59c2.69 0 3.67-.74 3.67-3.41 0-2.21-1.13-2.97-3.3-2.97ZM135.98 36.95l-1.31-4.88h-6.66l-1.31 4.88h-4.03l6.17-21.27h5.28l6.05 21.27h-4.18Zm-4.64-18.12-2.5 10.35h5.01l-2.5-10.35ZM149.6 18.62v18.32h-4.09V18.62h-5.1v-2.94h14.29v2.94h-5.1ZM158.94 36.95V15.68h4.09v21.27h-4.09ZM174.43 37.36c-6.93 0-7.24-4.56-7.24-10.74 0-6.53.21-11.35 7.36-11.35s7.39 4.59 7.39 11.32c0 6.15-.21 10.77-7.51 10.77Zm.12-19.21c-3.24 0-3.24 3.5-3.24 8.03 0 5.32.03 8.29 3.24 8.29s3.21-3.09 3.21-8.44c0-4.59.03-7.88-3.21-7.88ZM195.11 36.95l-5.25-17.82v17.82h-3.6V15.68h6.14l5.25 17.82V15.68h3.6v21.27h-6.14Z" style="fill:#fff"></path><path d="M77.87 0S51.1 8.16 33.59 7.6C20.26 7.17 0 1.3 0 1.3s13.45 12.71 13.45 23.15S0 47.61 0 47.61s17.62-16.49 32.95-26.79v-6.09h6.01v2.33C53.75 8.54 77.87 0 77.87 0Z" style="fill:#fff;fill-rule:evenodd"></path><path d="M96.61 40.84h1.68v1.89h1.57v-1.89h1.68v5.44h-1.68v-2.16h-1.57v2.16h-1.68v-5.44ZM103.75 40.84h4.51v1.4h-2.83v.68H108v1.3h-2.57v.68h2.91v1.39h-4.59v-5.44ZM111.98 40.84h1.64l1.98 5.44h-1.74l-.23-.78h-1.73l-.24.78h-1.68l2.01-5.44Zm1.32 3.5-.49-1.68h-.02l-.53 1.68h1.03ZM117.32 40.84H119v4.05h2.41v1.39h-4.09v-5.44ZM123.76 42.24h-1.52v-1.4h4.73v1.4h-1.52v4.05h-1.68v-4.05ZM128.93 40.84h1.68v1.89h1.57v-1.89h1.68v5.44h-1.68v-2.16h-1.57v2.16h-1.68v-5.44ZM139.5 42.87c-.03-.2-.18-.8-.88-.8-.79 0-1.04.76-1.04 1.49s.25 1.49 1.04 1.49c.56 0 .79-.4.88-.91h1.65c0 1.1-.89 2.26-2.49 2.26-1.76 0-2.76-1.24-2.76-2.85 0-1.72 1.08-2.85 2.76-2.85 1.49 0 2.32.79 2.46 2.16h-1.63ZM144.72 40.84h1.64l1.98 5.44h-1.74l-.23-.78h-1.73l-.24.78h-1.68l2-5.44Zm1.32 3.5-.49-1.68h-.02l-.53 1.68h1.03ZM150.06 40.84h3.19c.95 0 1.78.53 1.78 1.56 0 .56-.26 1.16-.82 1.36.46.18.74.68.8 1.36.02.27.03.91.18 1.17h-1.68c-.08-.27-.11-.56-.14-.84-.05-.52-.09-1.06-.75-1.06h-.89v1.9h-1.68v-5.44Zm1.68 2.38h.88c.31 0 .74-.05.74-.54 0-.34-.19-.54-.83-.54h-.79v1.08ZM157.06 40.84h4.51v1.4h-2.83v.68h2.57v1.3h-2.57v.68h2.91v1.39h-4.59v-5.44ZM171.66 45.73c-.37.48-.95.69-1.55.69-1.61 0-2.6-1.25-2.6-2.8 0-2.07 1.46-2.9 2.68-2.9 1.39 0 2.26.75 2.51 2.04h-1.61c-.06-.4-.4-.68-.79-.68-1.15 0-1.11 1.21-1.11 1.59 0 .51.21 1.4 1.23 1.4.39 0 .79-.2.87-.6h-.74V43.3h2.23v3h-1.06l-.05-.56ZM174.96 40.84h3.19c.95 0 1.78.53 1.78 1.56 0 .56-.26 1.16-.82 1.36.46.18.74.68.8 1.36.02.27.03.91.18 1.17h-1.68c-.08-.27-.11-.56-.14-.84-.05-.52-.09-1.06-.75-1.06h-.89v1.9h-1.68v-5.44Zm1.68 2.38h.88c.31 0 .74-.05.74-.54 0-.34-.19-.54-.83-.54h-.79v1.08ZM184.56 40.71c1.65 0 2.76 1.19 2.76 2.85s-1.11 2.85-2.76 2.85-2.76-1.19-2.76-2.85 1.11-2.85 2.76-2.85Zm0 4.35c.43 0 1.08-.28 1.08-1.49s-.66-1.49-1.08-1.49-1.08.28-1.08 1.49.66 1.49 1.08 1.49ZM194.32 44.18c0 1.51-.82 2.23-2.48 2.23s-2.49-.72-2.49-2.23v-3.34h1.68v2.97c0 .56 0 1.25.82 1.25s.79-.69.79-1.25v-2.97h1.68v3.34ZM196.51 40.84h2.81c1.48 0 2 1.08 2 1.86 0 1.32-.88 1.94-2.13 1.94h-.99v1.65h-1.68v-5.44Zm1.68 2.5h.65c.43 0 .89-.03.89-.58 0-.5-.38-.53-.79-.53h-.75v1.11Z" style="fill:#fff"></path></svg> 